<svg width="17" height="18" viewBox="0 0 17 18" fill="none" xmlns="http://www.w3.org/2000/svg">
<path d="M15.3125 11.4061L11.6336 9.75686L11.6195 9.75061C11.3804 9.64751 11.1192 9.60601 10.8599 9.6299C10.6006 9.65378 10.3514 9.74229 10.1352 9.88733C10.1048 9.90762 10.0756 9.92953 10.0477 9.95295L8.30469 11.4373C7.28907 10.8865 6.23985 9.84592 5.68829 8.84279L7.17735 7.07248C7.20129 7.04391 7.22346 7.01391 7.24376 6.98264C7.38499 6.76713 7.47074 6.52005 7.49337 6.26338C7.51599 6.00671 7.4748 5.74844 7.37344 5.51154C7.37104 5.50701 7.36895 5.50231 7.36719 5.49748L5.71876 1.81233C5.58344 1.50414 5.35251 1.24771 5.06013 1.08097C4.76775 0.91424 4.42946 0.846068 4.09532 0.886544C2.96123 1.03552 1.92015 1.59223 1.16652 2.45268C0.412886 3.31313 -0.00176688 4.4185 5.65943e-06 5.56233C5.65943e-06 11.9381 5.18672 17.1248 11.5625 17.1248C12.7063 17.1266 13.8117 16.7119 14.6722 15.9583C15.5326 15.2047 16.0893 14.1636 16.2383 13.0295C16.2788 12.6954 16.2106 12.3571 16.0439 12.0647C15.8771 11.7723 15.6207 11.5414 15.3125 11.4061ZM11.5625 15.2498C8.99417 15.2467 6.53192 14.2251 4.71583 12.409C2.89975 10.5929 1.87811 8.13066 1.87501 5.56233C1.87322 4.91506 2.09296 4.28666 2.49772 3.78156C2.90249 3.27646 3.4679 2.92506 4.10001 2.78576L5.57032 6.06701L4.07344 7.84983C4.04925 7.87866 4.02681 7.90892 4.00626 7.94045C3.85872 8.16588 3.77197 8.42564 3.75445 8.69449C3.73693 8.96334 3.78922 9.23215 3.90626 9.47483C4.64219 10.9811 6.1586 12.4873 7.68047 13.2248C7.92477 13.3406 8.19494 13.3911 8.46457 13.3712C8.7342 13.3514 8.99406 13.2619 9.21876 13.1115C9.24897 13.0912 9.27793 13.069 9.30547 13.0451L11.0578 11.5553L14.3391 13.0248C14.1998 13.6569 13.8484 14.2223 13.3433 14.6271C12.8382 15.0319 12.2098 15.2516 11.5625 15.2498Z" fill="#F52BA4"/>
</svg>
